<?xml version="1.0" encoding="UTF-8" standalone="no"?>
<svg
   viewBox="0 0 101 101"
   width="101"
   height="101"
   version="1.1"
   id="svg24"
   sodipodi:docname="icon.svg"
   inkscape:version="1.4.2 (f4327f4, 2025-05-13)"
   inkscape:export-filename="logo.jpg"
   inkscape:export-xdpi="243.33"
   inkscape:export-ydpi="243.33"
   xmlns:inkscape="http://www.inkscape.org/namespaces/inkscape"
   xmlns:sodipodi="http://sodipodi.sourceforge.net/DTD/sodipodi-0.dtd"
   xmlns="http://www.w3.org/2000/svg"
   xmlns:svg="http://www.w3.org/2000/svg">
  <sodipodi:namedview
     id="namedview24"
     pagecolor="#ffffff"
     bordercolor="#000000"
     borderopacity="0.25"
     inkscape:showpageshadow="2"
     inkscape:pageopacity="0.0"
     inkscape:pagecheckerboard="0"
     inkscape:deskcolor="#d1d1d1"
     inkscape:zoom="2.8756735"
     inkscape:cx="52.683311"
     inkscape:cy="103.45403"
     inkscape:window-width="1920"
     inkscape:window-height="1009"
     inkscape:window-x="-8"
     inkscape:window-y="-8"
     inkscape:window-maximized="1"
     inkscape:current-layer="g24" />
  <desc
     id="desc1">零件1.DXF - scale = 2.000000, origin = (0.000000, 0.000000), method = manual</desc>
  <defs
     id="defs4">
    <marker
       style="overflow:visible"
       id="marker27"
       refX="0"
       refY="0"
       orient="auto-start-reverse"
       inkscape:stockid="Concave triangle arrow"
       markerWidth="1"
       markerHeight="1"
       viewBox="0 0 1 1"
       inkscape:isstock="true"
       inkscape:collect="always"
       preserveAspectRatio="xMidYMid">
      <path
         transform="scale(0.7)"
         d="M -2,-4 9,0 -2,4 c 2,-2.33 2,-5.66 0,-8 z"
         style="fill:context-stroke;fill-rule:evenodd;stroke:none"
         id="path27" />
    </marker>
    <marker
       style="overflow:visible"
       id="ConcaveTriangle"
       refX="0"
       refY="0"
       orient="auto-start-reverse"
       inkscape:stockid="Concave triangle arrow"
       markerWidth="1"
       markerHeight="1"
       viewBox="0 0 1 1"
       inkscape:isstock="true"
       inkscape:collect="always"
       preserveAspectRatio="xMidYMid">
      <path
         transform="scale(0.7)"
         d="M -2,-4 9,0 -2,4 c 2,-2.33 2,-5.66 0,-8 z"
         style="fill:context-stroke;fill-rule:evenodd;stroke:none"
         id="path26" />
    </marker>
    <marker
       id="DistanceX"
       orient="auto"
       refX="0"
       refY="0"
       style="overflow:visible">
      <path
         d="M 3,-3 -3,3 M 0,-5 V 5"
         style="stroke:#000000;stroke-width:0.5"
         id="path1" />
    </marker>
    <pattern
       id="Hatch"
       patternUnits="userSpaceOnUse"
       width="8"
       height="8"
       x="0"
       y="0">
      <path
         d="M8 4 l-4,4"
         stroke="#000000"
         stroke-width="0.25"
         linecap="square"
         id="path2" />
      <path
         d="M6 2 l-4,4"
         stroke="#000000"
         stroke-width="0.25"
         linecap="square"
         id="path3" />
      <path
         d="M4 0 l-4,4"
         stroke="#000000"
         stroke-width="0.25"
         linecap="square"
         id="path4" />
    </pattern>
    <symbol
       id="*Model_Space" />
    <symbol
       id="*Paper_Space" />
    <symbol
       id="*Paper_Space0" />
    <inkscape:path-effect
       effect="fill_between_many"
       method="originald"
       linkedpaths="#path32,0,1|#path31,0,1|#path30,0,1|#path29,0,1|#path21,0,1"
       id="path-effect33"
       is_visible="true"
       lpeversion="0"
       join="true"
       close="true"
       autoreverse="true" />
  </defs>
  <g
     inkscape:groupmode="layer"
     inkscape:label="0"
     id="g24"
     transform="translate(-289.39809,-616.4727)">
    <path
       d="M 0,0"
       id="path33"
       style="fill:#0816f7;fill-opacity:1"
       inkscape:original-d="M 0,0"
       inkscape:path-effect="#path-effect33" />
    <g
       id="g37"
       transform="translate(13.31672,0.345905)">
      <g
         id="g36">
        <path
           style="fill:none;stroke:#000000;stroke-linecap:round"
           d="m 292.81929,651.35786 9.7537,36.51"
           id="path8" />
        <path
           style="fill:none;stroke:#000000;stroke-linecap:round"
           d="m 302.57299,687.86786 h 60.4724"
           id="path9" />
        <path
           style="fill:none;stroke:#000000;stroke-dasharray:8, 2, 1, 2;stroke-dashoffset:0"
           d="M 363.04539,716.78089 V 616.4727"
           id="path5"
           sodipodi:nodetypes="cc" />
        <path
           style="fill:none;stroke:#000000;stroke-linecap:round"
           d="m 292.81929,627.91786 9.7537,36.52"
           id="path10" />
        <path
           style="fill:none;stroke:#000000;stroke-linecap:round"
           d="m 302.57299,664.43786 h 60.4724"
           id="path11" />
        <path
           style="fill:none;stroke:#000000;stroke-linecap:round"
           d="m 300.25099,667.45786 h 62.7944"
           id="path13" />
        <path
           style="fill:none;stroke:#000000;stroke-linecap:round"
           d="m 289.89809,652.13786 10.3529,38.75"
           id="path16" />
        <path
           style="fill:none;stroke:#000000;stroke-linecap:round"
           d="m 300.25099,690.88786 h 62.7944"
           id="path17" />
        <path
           style="fill:none;stroke:#000000;stroke-linecap:round;stroke-linejoin:round"
           d="m 292.81929,627.91786 -2.9212,0.78 3.51144,13.49953"
           id="path18"
           sodipodi:nodetypes="ccc" />
        <path
           style="fill:none;stroke:#000000;stroke-linecap:round"
           d="m 363.04539,664.43786 v 3.02"
           id="path19" />
        <path
           style="fill:none;stroke:#000000;stroke-linecap:round"
           d="m 292.81929,651.35786 -2.9212,0.78"
           id="path22" />
        <path
           style="fill:none;stroke:#000000;stroke-linecap:round"
           d="m 363.04539,687.86786 v 3.02"
           id="path23" />
        <path
           style="fill:none;fill-rule:evenodd;stroke:#f10606;stroke-width:0.800003;stroke-dasharray:none;stroke-dashoffset:0;stroke-opacity:1;marker-start:url(#ConcaveTriangle);marker-end:url(#marker27)"
           id="path25"
           sodipodi:type="arc"
           sodipodi:cx="301.73886"
           sodipodi:cy="658.64893"
           sodipodi:rx="25.127211"
           sodipodi:ry="25.073318"
           sodipodi:start="4.6425758"
           sodipodi:end="0"
           sodipodi:arc-type="arc"
           d="m 299.98608,633.63668 a 25.127211,25.073318 0 0 1 18.8895,6.67478 25.127211,25.073318 0 0 1 7.99049,18.33747"
           sodipodi:open="true" />
        <text
           xml:space="preserve"
           style="font-size:10.6667px;font-family:'Times New Roman';-inkscape-font-specification:'Times New Roman, ';text-align:start;writing-mode:lr-tb;direction:ltr;text-anchor:start;fill:#f70808;fill-opacity:1;fill-rule:evenodd;stroke:#f10606;stroke-width:0.8;stroke-dasharray:none;stroke-dashoffset:0;stroke-opacity:1"
           x="319.05569"
           y="638.28522"
           id="text27"><tspan
             sodipodi:role="line"
             id="tspan27"
             x="319.05569"
             y="638.28522"
             style="font-style:italic;fill:#f70808;fill-opacity:1;stroke:#f10606;stroke-opacity:1">θ</tspan></text>
        <g
           id="g35"
           transform="translate(75.243243,0.69548927)"
           style="paint-order:stroke fill markers">
          <path
             id="path21"
             style="baseline-shift:baseline;display:inline;overflow:visible;opacity:1;vector-effect:none;fill:#0816f7;fill-opacity:1;stroke:none;stroke-linecap:round;stroke-opacity:1;paint-order:stroke fill markers;enable-background:accumulate;stop-color:#000000;stop-opacity:1"
             d="m 287.8457,677.94922 a 0.5,0.5 0 0 0 -0.5,0.5 v 3.02148 a 0.5,0.5 0 0 0 0.5,0.5 0.5,0.5 0 0 0 0.5,-0.5 v -3.02148 a 0.5,0.5 0 0 0 -0.5,-0.5 z m -59.76562,0 a 0.5,0.5 0 0 0 -0.5,0.5 0.5,0.5 0 0 0 0.5,0.5 h 59.76562 a 0.5,0.5 0 0 0 0.5,-0.5 0.5,0.5 0 0 0 -0.5,-0.5 z m -2.32227,3.02148 a 0.5,0.5 0 0 0 -0.5,0.5 0.5,0.5 0 0 0 0.5,0.5 h 62.08789 a 0.5,0.5 0 0 0 0.5,-0.5 0.5,0.5 0 0 0 -0.5,-0.5 z m -7.56054,-39.52343 a 0.5,0.5 0 0 0 -0.35352,0.61132 l 9.75391,36.52149 a 0.5,0.5 0 0 0 0.61132,0.35351 0.5,0.5 0 0 0 0.35352,-0.61328 l -9.75391,-36.51953 a 0.5,0.5 0 0 0 -0.61132,-0.35351 z m 0,0 -3.4043,0.9082 10.48242,39.24414 a 0.5,0.5 0 0 0 0.61133,0.35351 0.5,0.5 0 0 0 0.35351,-0.61132 l -10.22265,-38.27735 2.4375,-0.65039 a 0.5,0.5 0 0 0 0.35351,-0.61328 0.5,0.5 0 0 0 -0.61132,-0.35351 z" />
          <path
             style="fill:#0816f7;fill-opacity:1;fill-rule:evenodd;stroke:#0816f7;stroke-width:0.8;stroke-linejoin:round;stroke-dasharray:none;stroke-dashoffset:0;stroke-opacity:1;paint-order:stroke fill markers"
             d="m 226.08557,680.60144 c -0.047,-0.17931 -2.29994,-8.61972 -5.00643,-18.75648 -2.70649,-10.13675 -4.92876,-18.50366 -4.93837,-18.59312 -0.0146,-0.13621 0.12755,-0.2017 0.8747,-0.40288 0.4907,-0.13212 0.90698,-0.21541 0.92506,-0.18509 0.0181,0.0303 2.19266,8.15324 4.8324,18.05092 3.73997,14.02301 4.83815,18.02937 4.9745,18.14792 0.1659,0.14426 1.71287,0.15214 29.85403,0.15214 h 29.67907 v 0.9563 0.9563 h -30.55471 -30.55471 z"
             id="path34" />
        </g>
        <path
           d="m 363.26465,680.49017 c 0,-0.33333 -0.5,-0.33333 -0.5,0 0,0.33333 0.5,0.33333 0.5,0 z"
           style="fill:#000003;fill-opacity:1;stroke:#000000;stroke-linecap:round"
           id="path24"
           sodipodi:nodetypes="sss" />
      </g>
    </g>
  </g>
</svg>
